<svg width="12" height="23" viewBox="0 0 12 23" fill="none" xmlns="http://www.w3.org/2000/svg">
<path d="M11.1133 13.125H7.89062V22.75H3.59375V13.125H0.113281V9.12891H3.59375V6.12109C3.59375 4.97526 3.80859 4.0013 4.23828 3.19922C4.66797 2.39714 5.26953 1.79557 6.04297 1.39453C6.84505 0.964844 7.76172 0.75 8.79297 0.75C9.2513 0.75 9.73828 0.778646 10.2539 0.835938C10.7695 0.864583 11.1706 0.907552 11.457 0.964844L11.8867 1.00781V4.40234H10.168C9.36589 4.40234 8.77865 4.61719 8.40625 5.04688C8.0625 5.44792 7.89062 5.94922 7.89062 6.55078V9.12891H11.7148L11.1133 13.125Z" fill="#C1272D"/>
</svg>
