<svg width="18" height="23" viewBox="0 0 18 23" fill="none" xmlns="http://www.w3.org/2000/svg">
<path d="M8.14062 22.3203C7.45312 21.3177 6.66536 20.1862 5.77734 18.9258C4.91797 17.6654 4.30208 16.7773 3.92969 16.2617C3.55729 15.7461 3.1276 15.1159 2.64062 14.3711C2.15365 13.5977 1.82422 13.0534 1.65234 12.7383C1.50911 12.4232 1.33724 12.0221 1.13672 11.5352C0.964844 11.0482 0.85026 10.6328 0.792969 10.2891C0.764323 9.91667 0.75 9.48698 0.75 9C0.75 6.70833 1.55208 4.76042 3.15625 3.15625C4.76042 1.55208 6.70833 0.75 9 0.75C11.2917 0.75 13.2396 1.55208 14.8438 3.15625C16.4479 4.76042 17.25 6.70833 17.25 9C17.25 9.48698 17.2214 9.91667 17.1641 10.2891C17.1354 10.6328 17.0208 11.0482 16.8203 11.5352C16.6484 12.0221 16.4766 12.4232 16.3047 12.7383C16.1615 13.0534 15.8464 13.5977 15.3594 14.3711C14.8724 15.1159 14.4427 15.7461 14.0703 16.2617C13.6979 16.7773 13.0677 17.6654 12.1797 18.9258C11.3203 20.1862 10.5469 21.3177 9.85938 22.3203C9.65885 22.6068 9.3724 22.75 9 22.75C8.6276 22.75 8.34115 22.6068 8.14062 22.3203ZM6.55078 11.4492C7.23828 12.1081 8.05469 12.4375 9 12.4375C9.94531 12.4375 10.7474 12.1081 11.4062 11.4492C12.0938 10.7617 12.4375 9.94531 12.4375 9C12.4375 8.05469 12.0938 7.2526 11.4062 6.59375C10.7474 5.90625 9.94531 5.5625 9 5.5625C8.05469 5.5625 7.23828 5.90625 6.55078 6.59375C5.89193 7.2526 5.5625 8.05469 5.5625 9C5.5625 9.94531 5.89193 10.7617 6.55078 11.4492Z" fill="#C1272D"/>
</svg>
