<svg width="20" height="20" viewBox="0 0 20 20" fill="none" xmlns="http://www.w3.org/2000/svg">
<path d="M6.51953 6.26953C7.49349 5.29557 8.66797 4.80859 10.043 4.80859C11.418 4.80859 12.5781 5.29557 13.5234 6.26953C14.4974 7.21484 14.9844 8.375 14.9844 9.75C14.9844 11.125 14.4974 12.2995 13.5234 13.2734C12.5781 14.2188 11.418 14.6914 10.043 14.6914C8.66797 14.6914 7.49349 14.2188 6.51953 13.2734C5.57422 12.2995 5.10156 11.125 5.10156 9.75C5.10156 8.375 5.57422 7.21484 6.51953 6.26953ZM7.76562 12.0273C8.39583 12.6576 9.15495 12.9727 10.043 12.9727C10.931 12.9727 11.6901 12.6576 12.3203 12.0273C12.9505 11.3971 13.2656 10.638 13.2656 9.75C13.2656 8.86198 12.9505 8.10286 12.3203 7.47266C11.6901 6.84245 10.931 6.52734 10.043 6.52734C9.15495 6.52734 8.39583 6.84245 7.76562 7.47266C7.13542 8.10286 6.82031 8.86198 6.82031 9.75C6.82031 10.638 7.13542 11.3971 7.76562 12.0273ZM15.9727 3.82031C16.2018 4.02083 16.3164 4.27865 16.3164 4.59375C16.3164 4.90885 16.2018 5.18099 15.9727 5.41016C15.7721 5.63932 15.5143 5.75391 15.1992 5.75391C14.8841 5.75391 14.612 5.63932 14.3828 5.41016C14.1536 5.18099 14.0391 4.90885 14.0391 4.59375C14.0391 4.27865 14.1536 4.02083 14.3828 3.82031C14.612 3.59115 14.8841 3.47656 15.1992 3.47656C15.5143 3.47656 15.7721 3.59115 15.9727 3.82031ZM19.625 5.79688C19.6536 6.57031 19.668 7.88802 19.668 9.75C19.668 11.612 19.6536 12.9297 19.625 13.7031C19.5391 15.4505 19.0091 16.8112 18.0352 17.7852C17.0898 18.7305 15.7435 19.2318 13.9961 19.2891C13.2227 19.3464 11.9049 19.375 10.043 19.375C8.18099 19.375 6.86328 19.3464 6.08984 19.2891C4.34245 19.2031 2.99609 18.6875 2.05078 17.7422C1.67839 17.3984 1.3776 16.9974 1.14844 16.5391C0.919271 16.0807 0.747396 15.6367 0.632812 15.207C0.546875 14.7773 0.503906 14.276 0.503906 13.7031C0.446615 12.9297 0.417969 11.612 0.417969 9.75C0.417969 7.88802 0.446615 6.55599 0.503906 5.75391C0.589844 4.03516 1.10547 2.70312 2.05078 1.75781C2.99609 0.783854 4.34245 0.253906 6.08984 0.167969C6.86328 0.139323 8.18099 0.125 10.043 0.125C11.9049 0.125 13.2227 0.139323 13.9961 0.167969C15.7435 0.253906 17.0898 0.783854 18.0352 1.75781C19.0091 2.70312 19.5391 4.04948 19.625 5.79688ZM17.5625 15.4219C17.6484 15.1927 17.7201 14.9062 17.7773 14.5625C17.8346 14.1901 17.8776 13.7604 17.9062 13.2734C17.9349 12.7578 17.9492 12.3424 17.9492 12.0273C17.9492 11.7122 17.9492 11.2682 17.9492 10.6953C17.9492 10.1224 17.9492 9.80729 17.9492 9.75C17.9492 9.66406 17.9492 9.34896 17.9492 8.80469C17.9492 8.23177 17.9492 7.78776 17.9492 7.47266C17.9492 7.15755 17.9349 6.75651 17.9062 6.26953C17.8776 5.75391 17.8346 5.32422 17.7773 4.98047C17.7201 4.60807 17.6484 4.30729 17.5625 4.07812C17.2188 3.1901 16.6029 2.57422 15.7148 2.23047C15.4857 2.14453 15.1849 2.07292 14.8125 2.01562C14.4688 1.95833 14.0391 1.91536 13.5234 1.88672C13.0365 1.85807 12.6354 1.84375 12.3203 1.84375C12.0339 1.84375 11.5898 1.84375 10.9883 1.84375C10.4154 1.84375 10.1003 1.84375 10.043 1.84375C9.98568 1.84375 9.67057 1.84375 9.09766 1.84375C8.52474 1.84375 8.08073 1.84375 7.76562 1.84375C7.45052 1.84375 7.03516 1.85807 6.51953 1.88672C6.03255 1.91536 5.60286 1.95833 5.23047 2.01562C4.88672 2.07292 4.60026 2.14453 4.37109 2.23047C3.48307 2.57422 2.86719 3.1901 2.52344 4.07812C2.4375 4.30729 2.36589 4.60807 2.30859 4.98047C2.2513 5.32422 2.20833 5.75391 2.17969 6.26953C2.15104 6.75651 2.13672 7.15755 2.13672 7.47266C2.13672 7.75911 2.13672 8.20312 2.13672 8.80469C2.13672 9.3776 2.13672 9.69271 2.13672 9.75C2.13672 9.86458 2.13672 10.1367 2.13672 10.5664C2.13672 10.9674 2.13672 11.3112 2.13672 11.5977C2.13672 11.8555 2.13672 12.1992 2.13672 12.6289C2.16536 13.0586 2.19401 13.431 2.22266 13.7461C2.2513 14.0326 2.29427 14.3333 2.35156 14.6484C2.40885 14.9635 2.46615 15.2214 2.52344 15.4219C2.89583 16.3099 3.51172 16.9258 4.37109 17.2695C4.60026 17.3555 4.88672 17.4271 5.23047 17.4844C5.60286 17.5417 6.03255 17.5846 6.51953 17.6133C7.03516 17.6419 7.4362 17.6562 7.72266 17.6562C8.03776 17.6562 8.48177 17.6562 9.05469 17.6562C9.65625 17.6562 9.98568 17.6562 10.043 17.6562C10.1289 17.6562 10.444 17.6562 10.9883 17.6562C11.5612 17.6562 12.0052 17.6562 12.3203 17.6562C12.6354 17.6562 13.0365 17.6419 13.5234 17.6133C14.0391 17.5846 14.4688 17.5417 14.8125 17.4844C15.1849 17.4271 15.4857 17.3555 15.7148 17.2695C16.6029 16.8971 17.2188 16.2812 17.5625 15.4219Z" fill="#C1272D"/>
</svg>
