<svg width="22" height="22" viewBox="0 0 22 22" fill="none" xmlns="http://www.w3.org/2000/svg">
<path d="M3.4375 3.23047C5.52865 1.13932 8.04948 0.09375 11 0.09375C13.9505 0.09375 16.457 1.13932 18.5195 3.23047C20.6107 5.29297 21.6562 7.79948 21.6562 10.75C21.6562 13.7005 20.6107 16.2214 18.5195 18.3125C16.457 20.375 13.9505 21.4062 11 21.4062C8.04948 21.4062 5.52865 20.375 3.4375 18.3125C1.375 16.2214 0.34375 13.7005 0.34375 10.75C0.34375 7.79948 1.375 5.29297 3.4375 3.23047ZM13.4492 15.1328C13.7357 15.3333 13.9792 15.3047 14.1797 15.0469L15.3828 13.3711C15.5833 13.0846 15.5547 12.8411 15.2969 12.6406L12.5469 10.6641V4.73438C12.5469 4.39062 12.375 4.21875 12.0312 4.21875H9.96875C9.625 4.21875 9.45312 4.39062 9.45312 4.73438V11.9531C9.45312 12.125 9.52474 12.2682 9.66797 12.3828L13.4492 15.1328Z" fill="#C1272D"/>
</svg>
