<svg width="63" height="63" viewBox="0 0 63 63" fill="none" xmlns="http://www.w3.org/2000/svg">
<path fill-rule="evenodd" clip-rule="evenodd" d="M31.5 63C48.8965 63 63 48.897 63 31.5C63 14.103 48.8965 0 31.5 0C14.1035 0 0 14.103 0 31.5C0 48.897 14.1035 63 31.5 63ZM40.25 31.3125H45.7188C47.4961 31.3125 49 32.8164 49 34.5938V43.3438C49 45.1895 47.4961 46.625 45.7188 46.625H36.9688C35.123 46.625 33.6875 45.1895 33.6875 43.3438V26.9375C33.6875 20.9219 38.541 16 44.625 16H45.1719C45.623 16 46.0391 16.1941 46.3398 16.5015C46.6309 16.7993 46.8125 17.2034 46.8125 17.6406V20.9219C46.8125 21.8789 46.0605 22.5625 45.1719 22.5625H44.625C42.1641 22.5625 40.25 24.5449 40.25 26.9375V31.3125ZM20.5625 31.3125H26.0312C27.8086 31.3125 29.3125 32.8164 29.3125 34.5938V43.3438C29.3125 45.1895 27.8086 46.625 26.0312 46.625H17.2812C16.1348 46.625 15.1484 46.0715 14.5645 45.21C14.207 44.6841 14 44.0435 14 43.3438V26.9375C14 20.9219 18.8535 16 24.9375 16H25.4844C26.373 16 27.125 16.752 27.125 17.6406V20.9219C27.125 21.3884 26.9453 21.79 26.6602 22.0791C26.3594 22.3831 25.9395 22.5625 25.4844 22.5625H24.9375C22.4766 22.5625 20.5625 24.5449 20.5625 26.9375V31.3125Z" fill="white"/>
</svg>
